HIERARCHY
ROOT Hips
{
	OFFSET -0.001795 -0.223333 0.028219
	CHANNELS 6 Xposition Yposition Zposition Zrotation Yrotation Xrotation 
	JOINT LeftUpLeg
	{
		OFFSET 0.069520 -0.091406 -0.006815
		CHANNELS 3 Zrotation Yrotation Xrotation
		JOINT LeftLeg
		{
			OFFSET 0.034277 -0.375199 -0.004496
			CHANNELS 3 Zrotation Yrotation Xrotation
			JOINT LeftFoot
			{
				OFFSET -0.013596 -0.397961 -0.043693
				CHANNELS 3 Zrotation Yrotation Xrotation
				JOINT LeftToe
				{
					OFFSET 0.026358 -0.055791 0.119288
					CHANNELS 3 Zrotation Yrotation Xrotation
					End Site
					{
						OFFSET 0.000000 0.000000 0.000000
					}
				}
			}
		}
	}
	JOINT RightUpLeg
	{
		OFFSET -0.067670 -0.090522 -0.004320
		CHANNELS 3 Zrotation Yrotation Xrotation
		JOINT RightLeg
		{
			OFFSET -0.038290 -0.382569 -0.008850
			CHANNELS 3 Zrotation Yrotation Xrotation
			JOINT RightFoot
			{
				OFFSET 0.015774 -0.398415 -0.042312
				CHANNELS 3 Zrotation Yrotation Xrotation
				JOINT RightToe
				{
					OFFSET -0.025372 -0.048144 0.123348
					CHANNELS 3 Zrotation Yrotation Xrotation
					End Site
					{
						OFFSET 0.000000 0.000000 0.000000
					}
				}
			}
		}
	}
	JOINT Spine
	{
		OFFSET -0.002533 0.108963 -0.026696
		CHANNELS 3 Zrotation Yrotation Xrotation
		JOINT Spine1
		{
			OFFSET 0.005487 0.135180 0.001092
			CHANNELS 3 Zrotation Yrotation Xrotation
			JOINT Spine2
			{
				OFFSET 0.001457 0.052922 0.025425
				CHANNELS 3 Zrotation Yrotation Xrotation
				JOINT Neck
				{
					OFFSET -0.002778 0.213870 -0.042857
					CHANNELS 3 Zrotation Yrotation Xrotation
					JOINT Head
					{
						OFFSET 0.005152 0.064970 0.051349
						CHANNELS 3 Zrotation Yrotation Xrotation
						End Site
						{
							OFFSET 0.000000 0.000000 0.000000
						}
					}
				}
				JOINT LeftShoulder
				{
					OFFSET 0.078845 0.121749 -0.034090
					CHANNELS 3 Zrotation Yrotation Xrotation
					JOINT LeftArm
					{
						OFFSET 0.090977 0.030469 -0.008868
						CHANNELS 3 Zrotation Yrotation Xrotation
						JOINT LeftForeArm
						{
							OFFSET 0.259612 -0.012772 -0.027456
							CHANNELS 3 Zrotation Yrotation Xrotation
							JOINT LeftHand
							{
								OFFSET 0.249234 0.008986 -0.001171
								CHANNELS 3 Zrotation Yrotation Xrotation
								End Site
								{
									OFFSET 0.000000 0.000000 0.000000
								}
							}
						}
					}
				}
				JOINT RightShoulder
				{
					OFFSET -0.081759 0.118833 -0.038615
					CHANNELS 3 Zrotation Yrotation Xrotation
					JOINT RightArm
					{
						OFFSET -0.096012 0.032551 -0.009143
						CHANNELS 3 Zrotation Yrotation Xrotation
						JOINT RightForeArm
						{
							OFFSET -0.253742 -0.013329 -0.021401
							CHANNELS 3 Zrotation Yrotation Xrotation
							JOINT RightHand
							{
								OFFSET -0.255298 0.007772 -0.005559
								CHANNELS 3 Zrotation Yrotation Xrotation
								End Site
								{
									OFFSET 0.000000 0.000000 0.000000
								}
							}
						}
					}
				}
			}
		}
	}
}
MOTION
Frames: 17
Frame Time: 0.050000
-0.484412 0.942724 -0.156844 -20.860263 81.161818 -15.589557 2.975785 -0.829311 -1.630128 0.820741 -2.213646 -14.076158 -3.690309 4.502779 12.639295 0.000000 0.000000 0.000000 -0.223888 -0.374229 -6.421014 -1.283727 -0.288822 -8.457831 -7.072361 -7.372668 17.721294 0.000000 0.000000 0.000000 -0.066434 -0.186720 3.985844 -5.149898 -2.619594 7.634956 6.213216 9.688554 3.261436 8.409853 2.919307 -21.963596 0.000000 0.000000 0.000000 -33.084967 -36.109241 -5.226108 -34.730522 6.759498 1.411713 -74.765065 -63.872397 42.103040 0.000000 0.000000 0.000000 27.100661 14.385423 26.000046 27.227993 24.897071 -1.745019 -68.528502 55.011101 -29.193387 0.000000 0.000000 0.000000 
-0.485924 0.942705 -0.156366 -19.879332 80.490908 -14.750382 3.289407 -0.886943 -1.451909 0.672447 -2.214871 -14.140263 -3.423282 4.849864 12.707999 0.000000 0.000000 0.000000 0.144120 -0.251762 -6.225691 -1.406874 -0.279621 -8.616758 -6.791047 -7.087869 17.392759 0.000000 0.000000 0.000000 0.071698 -0.219285 4.304731 -5.356393 -2.506466 7.814424 6.285450 9.288444 3.314041 8.550132 2.748366 -21.947860 0.000000 0.000000 0.000000 -33.236516 -35.820400 -4.831113 -34.910243 6.435716 1.336379 -74.250297 -64.035108 42.091408 0.000000 0.000000 0.000000 26.497086 16.275277 26.465664 26.330852 26.213758 -1.318060 -62.295793 51.636626 -24.282807 0.000000 0.000000 0.000000 
-0.487832 0.942635 -0.155993 -18.058553 80.020915 -13.180048 3.185308 -0.868838 -1.222163 0.752531 -2.157746 -14.116462 -3.463271 4.822277 12.673398 0.000000 0.000000 0.000000 0.329256 -0.189876 -5.909654 -1.606929 -0.305304 -9.238284 -6.566268 -6.722622 17.441935 0.000000 0.000000 0.000000 -0.194856 -0.240560 4.661055 -5.793878 -2.547694 8.456491 6.505050 9.246074 3.048787 8.813958 2.577204 -22.239297 0.000000 0.000000 0.000000 -32.955050 -35.936738 -4.087265 -35.339681 5.446065 1.435332 -74.562877 -64.504551 42.545693 0.000000 0.000000 0.000000 26.028223 18.815913 27.538755 24.799870 28.517803 -0.829419 -56.448069 45.764159 -19.009721 0.000000 0.000000 0.000000 
-0.489728 0.942544 -0.155490 -16.400581 79.617434 -11.773458 3.185527 -0.879054 -0.860094 0.791234 -2.192409 -14.408622 -3.575699 4.875452 12.857953 0.000000 0.000000 0.000000 0.422256 -0.155491 -5.550517 -1.685099 -0.317746 -9.477009 -6.598759 -7.035091 17.011723 0.000000 0.000000 0.000000 -0.342355 -0.286157 5.207497 -6.068566 -2.357087 8.409532 6.887215 9.033907 3.464930 8.886537 2.601091 -22.623383 0.000000 0.000000 0.000000 -32.680838 -35.900715 -3.629052 -35.674881 4.324108 1.564733 -76.072630 -64.514078 43.589662 0.000000 0.000000 0.000000 25.516946 20.891295 28.283302 22.758150 30.301255 -0.553815 -51.252180 41.284936 -15.444757 0.000000 0.000000 0.000000 
-0.491352 0.942200 -0.154774 -15.171387 79.317562 -10.618275 3.128731 -0.863160 -0.815800 0.750035 -2.157636 -14.316540 -3.419889 4.905220 12.686836 0.000000 0.000000 0.000000 0.543350 -0.121101 -5.317593 -1.793873 -0.352996 -9.941235 -6.630276 -7.240783 16.771000 0.000000 0.000000 0.000000 -0.433251 -0.302618 5.408602 -6.065135 -2.358197 8.532787 6.922827 9.103866 3.575407 9.385798 2.381752 -22.903346 0.000000 0.000000 0.000000 -32.233092 -35.920275 -3.323167 -35.888216 3.166651 1.779377 -78.590934 -64.590773 45.303800 0.000000 0.000000 0.000000 25.443051 22.426144 29.152871 22.276455 31.610257 -0.303382 -48.329870 39.284987 -13.920633 0.000000 0.000000 0.000000 
-0.492492 0.941772 -0.153838 -14.606402 78.976019 -10.107973 3.092294 -0.848784 -0.807178 1.034628 -2.057869 -14.227599 -3.782098 4.415781 12.526379 0.000000 0.000000 0.000000 0.459490 -0.130304 -5.244366 -1.410413 -0.401281 -9.826285 -6.767128 -7.690998 16.440595 0.000000 0.000000 0.000000 -0.544631 -0.314115 5.565215 -5.910129 -2.353199 8.496556 7.414023 8.776068 4.052329 9.911681 2.203246 -23.423529 0.000000 0.000000 0.000000 -31.949142 -35.889757 -2.916695 -36.101574 1.839499 1.999977 -79.935715 -65.082192 46.662736 0.000000 0.000000 0.000000 25.661284 23.656470 29.858306 21.781042 32.451832 -0.194716 -44.847873 38.447146 -12.788841 0.000000 0.000000 0.000000 
-0.493236 0.941108 -0.152933 -14.211500 79.128097 -9.677494 3.156948 -0.853519 -1.000699 1.056716 -2.058702 -14.205401 -3.551036 4.785295 12.714512 0.000000 0.000000 0.000000 0.429584 -0.141672 -5.029783 -1.453115 -0.446442 -10.267716 -6.595921 -7.628531 15.979161 0.000000 0.000000 0.000000 -0.676857 -0.325251 5.727093 -5.439371 -2.513272 8.424799 7.571270 8.946487 4.473494 9.881308 2.364138 -23.827305 0.000000 0.000000 0.000000 -31.479695 -36.331905 -2.719942 -36.698946 1.188313 2.190755 -81.866850 -65.648665 48.031095 0.000000 0.000000 0.000000 26.170848 24.091905 30.614966 22.574507 32.594286 -0.106752 -43.137834 38.343446 -12.396501 0.000000 0.000000 0.000000 
-0.493726 0.940701 -0.152207 -13.825327 79.184839 -9.341314 3.287522 -0.860559 -1.356760 1.159457 -1.902676 -13.616856 -3.550534 4.346405 12.194841 0.000000 0.000000 0.000000 0.488693 -0.129700 -5.022509 -1.442023 -0.418371 -10.009071 -6.745490 -8.055203 15.696707 0.000000 0.000000 0.000000 -0.605672 -0.326147 5.710333 -5.400000 -2.588406 8.569025 8.051405 8.641448 4.742427 10.183469 2.257454 -24.142954 0.000000 0.000000 0.000000 -31.151523 -36.239542 -2.464366 -37.248759 0.517473 2.269235 -83.269525 -66.027615 49.164285 0.000000 0.000000 0.000000 27.060749 24.765207 31.467702 22.161863 32.441290 -0.262457 -41.053090 37.120594 -11.616238 0.000000 0.000000 0.000000 
-0.494079 0.940284 -0.151813 -12.734665 78.832912 -8.340562 3.065008 -0.810426 -1.410183 1.397555 -1.747876 -13.195635 -3.400244 4.239640 11.858776 0.000000 0.000000 0.000000 0.343318 -0.156676 -4.675729 -0.991888 -0.546829 -10.471286 -6.884641 -8.421469 15.609490 0.000000 0.000000 0.000000 -0.411824 -0.315067 5.537511 -5.504498 -2.675120 8.957993 8.404148 8.939720 5.035297 10.251929 2.260083 -24.337376 0.000000 0.000000 0.000000 -30.289144 -36.855922 -1.689114 -38.291879 -0.874120 2.533078 -81.711203 -67.501456 48.442400 0.000000 0.000000 0.000000 27.415313 25.515035 32.182891 21.248340 33.067468 -0.328766 -39.662820 33.271870 -10.082620 0.000000 0.000000 0.000000 
-0.494431 0.940479 -0.151679 -11.837319 78.767102 -7.439490 3.150455 -0.809660 -1.795571 1.169964 -1.698930 -12.806472 -3.108971 4.330582 11.599828 0.000000 0.000000 0.000000 0.278958 -0.172429 -4.208084 -0.877349 -0.606144 -10.796020 -7.068515 -8.942113 15.371034 0.000000 0.000000 0.000000 -0.105945 -0.324336 5.490094 -5.576065 -2.716256 9.174455 8.741885 8.979415 4.931074 10.312617 2.309885 -24.809296 0.000000 0.000000 0.000000 -30.552253 -37.164834 -1.398861 -38.526506 -1.141044 2.656549 -82.635812 -67.834839 49.368774 0.000000 0.000000 0.000000 27.747929 26.280242 32.779423 18.844293 33.098644 -0.674128 -37.761492 28.601825 -8.284295 0.000000 0.000000 0.000000 
-0.494700 0.940391 -0.151585 -10.297097 78.396448 -6.038485 2.898113 -0.761166 -1.672421 1.306441 -1.626168 -12.678635 -2.717444 4.763258 11.594177 0.000000 0.000000 0.000000 0.131766 -0.215318 -3.531740 -0.565526 -0.746209 -11.487177 -7.082542 -8.961825 15.530206 0.000000 0.000000 0.000000 0.015343 -0.332384 5.519732 -5.851640 -2.906673 9.984615 9.068995 9.454058 4.545980 10.455562 2.192805 -24.871168 0.000000 0.000000 0.000000 -29.882479 -37.505837 -0.728883 -39.288206 -2.539665 2.948319 -82.386353 -69.521163 50.172366 0.000000 0.000000 0.000000 27.953203 27.531523 33.625586 16.741255 33.360775 -0.927582 -36.499027 24.090638 -6.736243 0.000000 0.000000 0.000000 
-0.494789 0.939991 -0.151308 -9.876846 78.326465 -5.531604 2.933027 -0.759141 -1.917926 1.368041 -1.603366 -12.621216 -2.602693 4.736670 11.404225 0.000000 0.000000 0.000000 0.063707 -0.238390 -3.134883 -0.467973 -0.855887 -12.165205 -7.060134 -8.900264 15.641569 0.000000 0.000000 0.000000 0.421440 -0.354956 5.508207 -5.846203 -3.015019 10.307981 9.184468 9.572259 4.018644 10.457699 2.112668 -24.702269 0.000000 0.000000 0.000000 -29.835204 -37.957401 -0.189255 -39.422286 -3.085002 3.102789 -84.797689 -70.337448 52.795092 0.000000 0.000000 0.000000 27.807733 27.751841 33.599630 16.224464 33.521404 -0.958435 -35.874743 21.921118 -5.933886 0.000000 0.000000 0.000000 
-0.494734 0.939692 -0.150608 -9.619095 78.134250 -5.274487 2.898442 -0.756375 -1.768489 1.573908 -1.596049 -12.805251 -2.494440 4.898670 11.446593 0.000000 0.000000 0.000000 0.159341 -0.235548 -2.677488 -0.168395 -0.973479 -12.638590 -7.096100 -9.010265 15.659971 0.000000 0.000000 0.000000 0.582540 -0.395052 5.758356 -5.650999 -3.102166 10.440739 9.263978 9.190322 3.994466 10.446950 2.013753 -24.527944 0.000000 0.000000 0.000000 -29.486011 -37.879771 0.251922 -39.549191 -4.063549 3.214537 -84.982687 -72.010653 54.660715 0.000000 0.000000 0.000000 28.070449 27.868888 33.645448 16.829782 33.172510 -0.911376 -37.619170 22.132961 -6.241412 0.000000 0.000000 0.000000 
-0.494785 0.939349 -0.149580 -9.414890 77.982576 -4.723303 2.999074 -0.763567 -2.040201 1.721036 -1.552950 -12.741440 -2.628722 4.581811 11.226772 0.000000 0.000000 0.000000 0.236858 -0.205250 -2.768136 0.056681 -1.026195 -12.763582 -7.141205 -9.321272 15.260652 0.000000 0.000000 0.000000 0.846920 -0.442290 5.987726 -5.445734 -3.043662 10.189944 9.368668 8.336987 4.139209 10.054633 2.250362 -25.064092 0.000000 0.000000 0.000000 -28.879624 -37.746701 0.831744 -39.508423 -5.291518 3.308053 -85.275156 -74.081637 57.087411 0.000000 0.000000 0.000000 28.745401 27.016370 33.280619 18.182324 33.129497 -0.849838 -39.476721 24.712432 -7.295690 0.000000 0.000000 0.000000 
-0.495327 0.939504 -0.148319 -10.150916 77.911628 -5.248402 3.311446 -0.813013 -2.239353 1.794390 -1.503515 -12.556840 -2.794699 4.307505 11.121884 0.000000 0.000000 0.000000 0.546625 -0.136550 -2.909531 0.200427 -1.062595 -12.851861 -7.152452 -9.349407 15.217936 0.000000 0.000000 0.000000 1.053788 -0.474991 6.129857 -5.013908 -3.136746 10.026641 9.400898 7.740622 4.433425 10.012315 2.265524 -25.241049 0.000000 0.000000 0.000000 -28.637909 -37.987660 1.386744 -39.530436 -5.958316 3.340648 -83.701217 -75.909929 57.609088 0.000000 0.000000 0.000000 29.474864 26.484363 33.271431 20.872555 32.438586 -0.653067 -42.698072 28.749107 -9.255369 0.000000 0.000000 0.000000 
-0.496455 0.939634 -0.147172 -9.635063 77.806362 -4.315150 3.410365 -0.817230 -2.800583 2.004668 -1.443221 -12.414272 -3.194802 3.900770 11.147314 0.000000 0.000000 0.000000 0.721687 -0.075411 -3.248103 0.174360 -1.070427 -12.946232 -7.269266 -9.507091 15.277503 0.000000 0.000000 0.000000 0.893544 -0.470474 6.174000 -4.723089 -3.256336 10.033003 9.807242 7.165137 4.613087 9.747696 2.461971 -25.906081 0.000000 0.000000 0.000000 -28.679718 -38.294576 1.951083 -38.916313 -6.611927 3.436651 -81.790888 -77.502480 57.781617 0.000000 0.000000 0.000000 30.090433 26.739490 33.625430 21.936220 31.946413 -0.628713 -44.210232 31.741721 -10.760366 0.000000 0.000000 0.000000 
-0.498187 0.940238 -0.146286 -9.246915 77.449866 -3.718606 3.538253 -0.831498 -3.062531 2.244478 -1.399070 -12.432547 -3.844350 3.120638 11.048525 0.000000 0.000000 0.000000 0.754254 -0.055600 -3.267756 0.328497 -1.168008 -13.452652 -7.072605 -9.136079 15.279832 0.000000 0.000000 0.000000 1.027662 -0.496548 6.299965 -5.057144 -3.259509 10.429561 10.248848 7.294751 4.562495 9.508087 2.570977 -26.172724 0.000000 0.000000 0.000000 -28.712948 -39.034337 2.860656 -38.118224 -7.381635 3.539121 -76.927394 -78.463990 54.716709 0.000000 0.000000 0.000000 30.501232 27.416276 34.151744 21.094255 32.392602 -0.678485 -44.024163 31.527177 -10.742168 0.000000 0.000000 0.000000 
